<svg id="Layer_1" data-name="Layer 1" xmlns="http://www.w3.org/2000/svg" viewBox="0 0 658.65 126.62"><defs><style>.cls-1{fill:#1daeff;}</style></defs><title>Cliq</title><path class="cls-1" d="M107.62,126.64,66.49,101.72,25.36,126.64l11-46.82L-.06,48.4l47.91-4L66.49.05,85.12,44.38l47.92,4L96.64,79.82ZM19.57,54.78,45.23,76.93l-7.74,33,29-17.56,29,17.56-7.74-33L113.4,54.78,79.62,51.94,66.49,20.69,53.35,51.94Z"/><path class="cls-1" d="M239,126.64l-41.13-24.92-41.13,24.92,11-46.82L131.34,48.4l47.91-4L197.89.05l18.63,44.33,47.92,4L228,79.82ZM197.89,92.37l29,17.56-7.74-33L244.8,54.78,211,51.94,197.89,20.69,184.75,51.94,151,54.78l25.66,22.15-7.74,33Z"/><path class="cls-1" d="M370.42,126.64l-41.13-24.92-41.13,24.92,11-46.82L262.73,48.4l47.92-4L329.29.05l18.63,44.33,47.92,4-36.4,31.42ZM282.37,54.78,308,76.93l-7.74,33,29-17.56,29,17.56-7.74-33L376.2,54.78l-33.78-2.84L329.29,20.69,316.15,51.94Z"/><path class="cls-1" d="M501.82,126.64l-41.13-24.92-41.14,24.92,11-46.82L394.13,48.4l47.92-4L460.69.05l18.63,44.33,47.92,4-36.4,31.42ZM413.77,54.78l25.66,22.15-7.74,33,29-17.56,29,17.56-7.74-33L507.6,54.78l-33.78-2.84L460.69,20.69,447.55,51.94Z"/><path class="cls-1" d="M633.22,126.64l-41.14-24.92L551,126.64l11-46.82L525.53,48.4l47.92-4L592.08.05l18.64,44.33,47.92,4L622.23,79.82ZM592.08,92.37l29,17.56-7.74-33L639,54.78l-33.78-2.84L592.08,20.69,579,51.94l-33.78,2.84,25.66,22.15-7.74,33Z"/></svg>