<svg id="Layer_1" data-name="Layer 1" xmlns="http://www.w3.org/2000/svg" viewBox="0 0 658.65 126.8"><defs><style>.cls-1{fill:#1daeff;}</style></defs><title>Cliq</title><polygon class="cls-1" points="66.49 10.32 82.37 48.12 123.22 51.55 92.19 78.33 101.55 118.24 66.49 97 31.42 118.24 40.79 78.33 9.75 51.55 50.6 48.12 66.49 10.32"/><path class="cls-1" d="M107.62,126.59,66.49,101.68,25.36,126.59l11-46.81L-.06,48.35l47.91-4L66.49,0,85.12,44.33l47.92,4L96.64,79.77ZM19.57,54.73,45.23,76.88l-7.74,33,29-17.56,29,17.56-7.74-33L113.4,54.73,79.62,51.9,66.49,20.65,53.35,51.9Z"/><polygon class="cls-1" points="197.89 10.32 213.77 48.12 254.62 51.55 223.59 78.33 232.95 118.24 197.89 97 162.82 118.24 172.19 78.33 141.15 51.55 182 48.12 197.89 10.32"/><path class="cls-1" d="M239,126.59l-41.13-24.91-41.13,24.91,11-46.82-36.4-31.42,47.91-4L197.89,0l18.63,44.33,47.92,4L228,79.78ZM197.89,92.33l29,17.56-7.74-33L244.8,54.73,211,51.9,197.89,20.65,184.75,51.9,151,54.73l25.66,22.16-7.74,33Z"/><polygon class="cls-1" points="329.29 10.32 345.17 48.12 386.02 51.55 354.99 78.33 364.35 118.24 329.29 97 294.22 118.24 303.58 78.33 272.55 51.55 313.4 48.12 329.29 10.32"/><path class="cls-1" d="M370.42,126.59l-41.13-24.91-41.13,24.91,11-46.82L262.73,48.35l47.92-4L329.29,0l18.63,44.33,47.92,4-36.4,31.42ZM282.37,54.73,308,76.89l-7.74,33,29-17.56,29,17.56-7.74-33L376.2,54.73,342.42,51.9,329.29,20.65,316.15,51.9Z"/><polygon class="cls-1" points="460.69 10.32 476.57 48.12 517.42 51.55 486.39 78.33 495.75 118.24 460.69 97 425.62 118.24 434.98 78.33 403.95 51.55 444.8 48.12 460.69 10.32"/><path class="cls-1" d="M501.82,126.59l-41.13-24.91-41.14,24.91,11-46.81L394.13,48.35l47.92-4L460.69,0l18.63,44.33,47.92,4-36.4,31.42ZM413.77,54.73l25.66,22.15-7.74,33,29-17.56,29,17.56-7.74-33L507.6,54.73,473.82,51.9,460.69,20.65,447.55,51.9Z"/><polygon class="cls-1" points="592.09 10.32 607.97 48.12 648.82 51.55 617.79 78.33 627.15 118.24 592.09 97 557.02 118.24 566.38 78.33 535.35 51.55 576.2 48.12 592.09 10.32"/><path class="cls-1" d="M633.22,126.59l-41.14-24.91L551,126.59l11-46.82-36.4-31.42,47.92-4L592.08,0l18.64,44.33,47.92,4L622.23,79.78ZM592.08,92.33l29,17.56-7.74-33L639,54.73,605.22,51.9,592.08,20.65,579,51.9l-33.78,2.83,25.66,22.16-7.74,33Z"/></svg>